<?xml version="1.0" encoding="UTF-8" standalone="no"?>
<!-- Created with Inkscape (http://www.inkscape.org/) -->

<svg
   width="512"
   height="512"
   viewBox="0 0 135.46666 135.46667"
   version="1.1"
   id="svg5"
   xml:space="preserve"
   inkscape:version="1.2 (dc2aedaf03, 2022-05-15)"
   sodipodi:docname="Legend Fragments.svg"
   xmlns:inkscape="http://www.inkscape.org/namespaces/inkscape"
   xmlns:sodipodi="http://sodipodi.sourceforge.net/DTD/sodipodi-0.dtd"
   xmlns="http://www.w3.org/2000/svg"
   xmlns:svg="http://www.w3.org/2000/svg"><sodipodi:namedview
     id="namedview7"
     pagecolor="#ffffff"
     bordercolor="#000000"
     borderopacity="0.25"
     inkscape:showpageshadow="2"
     inkscape:pageopacity="0.0"
     inkscape:pagecheckerboard="0"
     inkscape:deskcolor="#d1d1d1"
     inkscape:document-units="mm"
     showgrid="false"
     inkscape:zoom="0.32567287"
     inkscape:cx="-210.33376"
     inkscape:cy="494.36111"
     inkscape:window-width="1366"
     inkscape:window-height="697"
     inkscape:window-x="-8"
     inkscape:window-y="-8"
     inkscape:window-maximized="1"
     inkscape:current-layer="layer1" /><defs
     id="defs2" /><g
     inkscape:label="Layer 1"
     inkscape:groupmode="layer"
     id="layer1"><g
       id="g2505"
       transform="matrix(4.9738422,0,0,4.9738422,-1153.5138,-778.10061)"><path
         id="path302"
         style="fill:#fe1b07;fill-opacity:0.996078;stroke-width:0.529167;stroke-linecap:square"
         d="m 234.18814,157.07688 v 19.74763 l 6.2115,6.21151 h 16.48013 v -20.21427 l -5.74487,-5.74487 z m 15.798,2.72903 4.27261,4.27261 v 16.24655 h -13.2669 l -4.29069,-4.29069 V 160.0214 Z" /><path
         id="path1377"
         style="fill:#fff;fill-opacity:1;stroke:none;stroke-width:0.264583;stroke-linecap:square;stroke-dasharray:none;stroke-opacity:1"
         d="m 245.26446,162.53443 c -2.72668,0.10636 -2.93722,2.50046 -3.41064,4.0752 -0.4277,0.72407 -0.30756,1.44789 -0.0718,2.17196 0.93178,0.41443 1.05161,1.44859 1.56166,2.27997 l -0.0899,0.86196 c -1.87112,0.26946 -3.57315,0.9778 -5.20588,1.86707 l 4.83795,4.83795 h 5.34076 l 4.8829,-4.4788 c -1.7112,-1.01265 -3.52902,-1.90884 -5.76244,-2.35179 -0.28114,-0.23578 -0.36961,-0.48438 -0.14366,-0.75396 0.32731,-0.46829 0.403,-1.00543 0.70022,-1.52601 0.45664,-0.9911 1.74482,-2.24499 0.53847,-2.71094 -0.61374,-1.26228 0.26563,-3.9595 -3.17759,-4.27261 z m 0.35812,9.2785 3.11505,5.24309 -0.88418,0.97669 -1.73736,-1.36736 h 1.08986 l -1.58285,-2.57039 -1.55236,2.57039 h 1.05885 l -1.75804,1.36736 -0.87384,-0.97669 z" /></g><g
       id="g7960"
       transform="matrix(0.83987958,0,0,0.83987958,162.45475,64.547655)" /></g></svg>
